<svg width="159" height="50" viewBox="0 0 159 50" fill="none" xmlns="http://www.w3.org/2000/svg">
<rect width="159" height="50" rx="16" fill="white"/>
<rect width="49.6914" height="50" rx="16" fill="url(#paint0_linear_6_25)"/>
<path d="M22.6104 14.0347C21.9879 14.2582 21.4955 14.6027 21.2819 14.9658C21.1425 15.2079 21.031 15.2824 20.8359 15.2824C20.3714 15.2824 19.461 15.6269 18.9686 15.9901C18.1975 16.5488 17.7423 17.3402 17.6494 18.2527C17.6215 18.5134 17.5193 18.6438 17.1106 18.9604C16.0886 19.7425 15.7077 21.1113 16.228 22.1076C16.4417 22.508 16.4509 22.5359 16.293 22.6756C15.9864 22.9549 15.6427 23.7092 15.5405 24.3423C15.3083 25.8508 15.9864 27.3406 17.3521 28.2903L17.6308 28.4859L17.4636 28.8304L17.3056 29.1656L17.0084 28.998C15.7263 28.2624 14.7044 26.4839 14.7044 25.0127C14.7044 24.3516 14.9459 23.4205 15.2525 22.8711C15.4941 22.4428 15.5033 22.3776 15.3919 22.0797C15.3268 21.9028 15.2711 21.6327 15.2711 21.4838C15.2618 21.2975 15.2246 21.2323 15.1317 21.2696C15.0574 21.2975 14.8159 21.372 14.5929 21.4279C14.0634 21.5769 13.9983 21.642 13.924 22.0797C13.8683 22.4521 13.859 22.4521 13.4595 22.4521C13.1436 22.4521 13.0321 22.4894 12.995 22.6104C12.9671 22.7035 12.6698 24.2213 12.3354 25.9904C12.0009 27.7596 11.5178 30.2736 11.267 31.5772C11.0069 32.8808 10.8025 33.9796 10.8025 34.0168C10.8025 34.054 12.9021 34.1006 15.4755 34.1192C19.591 34.1472 20.2042 34.1658 20.6873 34.3148C21.3933 34.5289 22.0344 34.8455 22.7497 35.3576C24.2083 36.3912 25.3881 36.3633 26.8746 35.2645C27.5063 34.7896 28.0173 34.5475 28.8162 34.3055C29.2622 34.1751 30.0147 34.1472 33.963 34.1192C36.4993 34.0913 38.5803 34.0634 38.5803 34.054C38.5803 34.0447 38.4595 33.4302 38.3109 32.6853C38.0693 31.5214 37.642 29.3239 36.5643 23.7092L36.3135 22.3963L35.8675 22.4521C35.3566 22.5173 35.3751 22.5359 35.2915 22.0704C35.2358 21.7631 35.18 21.7072 34.697 21.4931L34.1674 21.2696L34.0652 21.7072C34.0095 21.9493 33.9259 22.2007 33.8887 22.2566C33.8515 22.3218 33.9537 22.6104 34.1117 22.9084C34.4368 23.5136 34.6784 24.4354 34.6784 25.0593C34.6784 25.6273 34.4554 26.4746 34.121 27.1637C33.8423 27.741 32.9783 28.6907 32.4673 28.998L32.1886 29.1563L31.9749 28.8583L31.7612 28.5697L32.0864 28.3276C32.6903 27.8806 33.1734 27.3126 33.4799 26.6888C33.7494 26.1394 33.7958 25.9439 33.8237 25.2083C33.8608 24.2492 33.6843 23.5974 33.2105 22.8991L32.9411 22.4987L33.1083 22.1262C33.3592 21.5769 33.3406 20.6271 33.0712 20.0126C32.8389 19.4911 32.4394 19.0256 31.9935 18.7648C31.7984 18.6438 31.7055 18.5041 31.6683 18.2527C31.4268 16.7536 30.3863 15.6549 28.9556 15.3755C28.4632 15.2824 28.3424 15.2079 28.0637 14.8727C27.3855 14.0812 25.9827 13.6716 25.0258 14.0068C24.7285 14.1092 24.5613 14.1278 24.4405 14.0626C24.1154 13.8857 23.047 13.8671 22.6104 14.0347ZM26.5587 15.1055C26.8188 15.2359 27.0604 15.6735 27.0604 16.0087C27.0604 16.3625 26.7631 16.735 26.3636 16.8746L26.0385 16.9957V18.141V19.2863H26.6423C27.4041 19.2863 27.6271 19.1745 28.0637 18.5972C28.361 18.2062 28.4075 18.0758 28.3517 17.8616C28.1009 16.9119 29.1878 16.1949 29.9311 16.8281C30.6093 17.3961 30.2469 18.5228 29.3644 18.5507C29.2157 18.5507 29.0392 18.709 28.7512 19.1094C28.231 19.845 27.6735 20.1243 26.7166 20.1243H26.0385V21.1951V22.2659H27.079H28.1102L28.4725 21.8841C28.7605 21.5862 28.8162 21.4651 28.7605 21.3068C28.7233 21.1951 28.6862 20.9437 28.6955 20.7388C28.6955 20.4502 28.7605 20.3198 28.9928 20.115C29.9218 19.2863 31.2224 20.5247 30.3677 21.4186C30.2191 21.5769 29.9868 21.7258 29.8475 21.7538C29.6988 21.791 29.4666 21.9866 29.2529 22.2752C28.7419 22.9643 28.3796 23.1039 27.0883 23.1039H26.0385V24.0351V24.9662H26.345C26.503 24.9755 26.9396 24.9941 27.3112 25.0221C27.9708 25.0686 27.9801 25.0686 28.0452 24.8265C28.1288 24.5006 28.5933 24.1282 28.9277 24.1282C29.5873 24.1282 30.1169 24.7427 29.9868 25.348C29.8567 25.9532 29.0299 26.2698 28.4539 25.9439C28.2867 25.8508 27.8965 25.8135 27.1347 25.8042H26.0385V26.5026V27.2009H28.0823C30.8322 27.2009 31.0087 27.1264 31.0087 25.9718C31.0087 25.3573 31.0273 25.3107 31.2874 25.0965C31.9563 24.5658 32.9132 25.0034 32.9132 25.8415C32.9132 26.2977 32.6067 26.6981 32.1793 26.8005C32.0492 26.8285 31.7984 27.024 31.6219 27.2288C31.0366 27.8993 30.8508 27.9458 28.296 27.9458H26.0478L26.0199 28.7931L25.992 29.6405L25.6018 29.9757L25.2023 30.3016V23.4019C25.2023 19.1001 25.1652 16.4184 25.1094 16.2601C24.998 15.9621 25.2023 15.301 25.4532 15.1521C25.8527 14.91 26.1314 14.9006 26.5587 15.1055ZM23.6509 15.2824C24.1154 15.6549 24.0411 16.288 23.5022 16.5488C23.2049 16.6884 23.1585 16.6884 22.8426 16.5394C22.4617 16.3532 22.2945 16.0459 22.3781 15.6921C22.4524 15.3941 22.8426 15.0962 23.1585 15.0962C23.2978 15.0962 23.5208 15.18 23.6509 15.2824ZM20.5294 16.6791C20.6966 16.7815 20.8545 16.9678 20.8917 17.0981C20.9474 17.3216 20.9846 17.3309 21.607 17.3309C22.0808 17.3309 22.3781 17.3868 22.6661 17.5264C23.1678 17.7685 23.8367 18.5041 23.976 18.9883C24.0596 19.249 24.0875 20.8692 24.0875 24.8172V30.283L23.7438 30.0222C23.5487 29.8826 23.3629 29.7243 23.3257 29.6684C23.2886 29.6219 23.2514 29.2122 23.2514 28.7559V27.9458H21.1704H19.0894L18.6063 27.6851C18.3183 27.5361 18.0024 27.2754 17.8352 27.0426C17.5936 26.6981 17.5472 26.5491 17.51 25.888C17.4729 25.171 17.4543 25.1152 17.1477 24.8358C16.7389 24.4634 16.6646 24.0164 16.934 23.5881C17.2871 23.0201 17.9095 22.9456 18.3833 23.4205C18.8014 23.8395 18.8292 24.3796 18.4576 24.752C18.2347 24.9755 18.2161 25.05 18.2533 25.6087C18.2904 26.3536 18.5412 26.7633 19.108 27.024C19.4424 27.173 19.7397 27.2009 21.3748 27.2009H23.2514V26.5119V25.8321L22.2852 25.8415C21.3562 25.8508 21.3004 25.8415 20.9195 25.5714C20.7059 25.4131 20.4272 25.1059 20.3064 24.8824C20.1113 24.5006 20.0927 24.361 20.0927 22.9084C20.0927 21.372 20.0927 21.3348 19.8605 21.1113C19.2938 20.5433 19.5725 19.6029 20.3528 19.4446C20.678 19.3794 21.2168 19.6401 21.3748 19.9381C21.5513 20.2919 21.4491 20.8785 21.1704 21.1206C20.9288 21.3255 20.9288 21.3255 20.9288 22.8618V24.4075L21.1983 24.7055C21.4491 24.9848 21.5234 25.0127 22.0622 25.0221C22.3874 25.0314 22.7869 25.0221 22.9541 24.9941L23.2514 24.9476V22.089V19.2304L23.0006 18.8393C22.5453 18.1317 21.4584 17.871 20.6037 18.262C19.8326 18.6159 19.1823 18.4017 19.0151 17.7406C18.9314 17.4054 19.0522 17.0609 19.3495 16.7629C19.6654 16.437 20.0927 16.4091 20.5294 16.6791ZM18.3183 20.1709C19.0336 20.534 18.7271 21.6141 17.9095 21.6141C17.5658 21.6141 17.2127 21.2323 17.2127 20.8413C17.2127 20.5061 17.3335 20.3012 17.6308 20.1429C17.8816 20.0033 18.0117 20.0033 18.3183 20.1709ZM31.6126 22.4056C32.0771 22.6477 32.1421 23.2808 31.7427 23.6347C31.241 24.0909 30.4978 23.7371 30.4978 23.0574C30.4978 22.8246 30.5721 22.6477 30.73 22.4987C30.9902 22.2287 31.2317 22.21 31.6126 22.4056ZM14.3049 23.914C14.0262 26.037 13.4874 29.7895 13.4409 29.9291C13.3852 30.0967 13.4316 30.0967 14.0262 30.0316C15.2618 29.8826 17.5565 29.9571 18.5598 30.1712C20.8638 30.6554 22.6475 31.5121 24.0132 32.8063L24.7285 33.4861L25.5089 32.7411C27.5992 30.7299 31.1852 29.6684 34.8084 29.9943C35.4123 30.0502 35.9233 30.0781 35.9326 30.0688C35.9418 30.0502 35.8118 29.2028 35.6446 28.1786C35.4866 27.1544 35.2451 25.6366 35.1243 24.8079L34.9013 23.2995L35.1522 23.4391C35.4309 23.5788 35.4588 23.6905 35.8768 25.8973C35.979 26.4374 36.2298 27.7503 36.4435 28.8211C36.8987 31.1862 36.8894 31.1396 36.5643 31.0744C33.7122 30.4785 31.2224 30.674 28.6862 31.689C27.2648 32.257 25.6947 33.3929 24.9515 34.3986L24.7564 34.65L23.9667 33.8678C22.694 32.6108 21.6721 32.0056 19.7025 31.3538C17.5472 30.6368 15.5498 30.5623 12.7627 31.0744C12.4654 31.1303 12.4562 31.1303 12.5119 30.8696C12.9207 28.7931 13.6081 25.1338 13.6825 24.603C13.8218 23.6254 13.859 23.5136 14.0819 23.4019C14.1934 23.346 14.3142 23.2995 14.3421 23.2995C14.3699 23.2902 14.3514 23.5695 14.3049 23.914ZM21.2261 29.7243C22.3038 30.1619 22.4153 30.2271 22.4153 30.4692C22.4153 30.7671 22.2573 30.7485 21.3748 30.3761C20.901 30.1712 20.39 29.9757 20.2507 29.9384C19.9441 29.8639 19.8419 29.6777 19.9998 29.4822C20.1577 29.296 20.1485 29.296 21.2261 29.7243ZM29.5687 29.4822C29.7174 29.6684 29.5687 29.8639 29.2064 29.9291C29.0671 29.9571 28.5654 30.1433 28.1102 30.3481C27.2462 30.7206 27.0604 30.7392 27.0604 30.4692C27.0604 30.2364 27.3019 30.0595 27.8965 29.8546C28.1752 29.7615 28.5747 29.6125 28.7791 29.5194C29.2436 29.3146 29.4201 29.3053 29.5687 29.4822ZM18.1882 32.0056C19.6003 32.2383 22.0344 33.1415 22.1644 33.4861C22.2573 33.7095 21.9508 33.812 21.5792 33.6723C19.4981 32.8994 18.6992 32.6853 17.0641 32.4991C16.005 32.378 14.1191 32.4432 12.8928 32.648C11.8151 32.8249 11.8244 32.8249 11.8244 32.5735C11.8244 32.2476 11.9266 32.1638 12.5212 32.0428C13.8311 31.7728 16.6182 31.7541 18.1882 32.0056ZM36.6293 32.0428C37.3261 32.1732 37.4654 32.2663 37.4654 32.5642C37.4654 32.8249 37.5305 32.8249 36.5364 32.648C33.898 32.1825 30.9716 32.4618 28.6583 33.3836C27.7014 33.7747 27.3391 33.812 27.3391 33.5326C27.3391 33.2905 27.6178 33.1136 28.7048 32.6946C29.5502 32.3687 30.9251 32.0149 31.7055 31.9124C32.3279 31.8379 36.0347 31.9404 36.6293 32.0428Z" fill="white"/>
<path d="M61.144 19.28C60.904 18.96 60.984 18.8 61.384 18.8H64.408C64.6 18.8 64.784 18.848 64.96 18.944C65.152 19.024 65.304 19.136 65.416 19.28L68.128 22.712L70.84 19.28C70.952 19.136 71.096 19.024 71.272 18.944C71.464 18.848 71.656 18.8 71.848 18.8H74.872C75.272 18.8 75.352 18.96 75.112 19.28L70.264 25.4L75.112 31.52C75.352 31.84 75.272 32 74.872 32H71.824C71.648 32 71.464 31.96 71.272 31.88C71.096 31.784 70.952 31.664 70.84 31.52L68.128 28.088L65.416 31.52C65.304 31.664 65.152 31.784 64.96 31.88C64.784 31.96 64.608 32 64.432 32H61.384C60.984 32 60.904 31.84 61.144 31.52L65.992 25.4L61.144 19.28ZM76.45 19.4C76.45 19 76.65 18.8 77.05 18.8H86.29C86.706 18.8 86.914 19 86.914 19.4V21.32C86.914 21.72 86.706 21.92 86.29 21.92H79.81V23.84H85.498C85.898 23.84 86.098 24.064 86.098 24.512V26.288C86.098 26.736 85.898 26.96 85.498 26.96H79.81V28.88H86.506C86.906 28.88 87.106 29.08 87.106 29.48V31.4C87.106 31.8 86.906 32 86.506 32H77.05C76.65 32 76.45 31.8 76.45 31.4V19.4ZM88.7781 19.4C88.7781 19 88.9781 18.8 89.3781 18.8H91.5381C91.9381 18.8 92.1381 19 92.1381 19.4V28.88H98.5941C98.9941 28.88 99.1941 29.08 99.1941 29.48V31.4C99.1941 31.8 98.9941 32 98.5941 32H89.3781C88.9781 32 88.7781 31.8 88.7781 31.4V19.4ZM107.448 32.36C106.424 32.36 105.48 32.2 104.616 31.88C103.752 31.56 103.008 31.104 102.384 30.512C101.76 29.904 101.272 29.168 100.92 28.304C100.584 27.44 100.416 26.472 100.416 25.4C100.416 24.328 100.584 23.36 100.92 22.496C101.256 21.632 101.728 20.904 102.336 20.312C102.96 19.704 103.696 19.24 104.544 18.92C105.408 18.6 106.36 18.44 107.4 18.44C109.176 18.44 110.584 18.808 111.624 19.544C112.664 20.264 113.264 21.248 113.424 22.496C113.456 22.672 113.416 22.824 113.304 22.952C113.208 23.064 113.056 23.12 112.848 23.12H110.832C110.608 23.12 110.352 22.968 110.064 22.664C109.84 22.408 109.528 22.184 109.128 21.992C108.728 21.784 108.168 21.68 107.448 21.68C106.424 21.68 105.576 22.008 104.904 22.664C104.232 23.32 103.896 24.232 103.896 25.4C103.896 26.568 104.24 27.48 104.928 28.136C105.616 28.776 106.488 29.096 107.544 29.096C108.264 29.096 108.856 29 109.32 28.808C109.784 28.616 110.128 28.384 110.352 28.112C110.496 27.92 110.624 27.792 110.736 27.728C110.864 27.664 110.992 27.632 111.12 27.632H113.136C113.344 27.632 113.496 27.688 113.592 27.8C113.704 27.912 113.744 28.056 113.712 28.232C113.552 29.48 112.936 30.48 111.864 31.232C110.808 31.984 109.336 32.36 107.448 32.36ZM114.947 25.4C114.947 24.36 115.107 23.416 115.427 22.568C115.763 21.704 116.227 20.968 116.819 20.36C117.427 19.752 118.155 19.28 119.003 18.944C119.867 18.608 120.819 18.44 121.859 18.44C122.899 18.44 123.843 18.608 124.691 18.944C125.539 19.28 126.267 19.752 126.875 20.36C127.483 20.968 127.955 21.704 128.291 22.568C128.627 23.416 128.795 24.36 128.795 25.4C128.795 26.44 128.627 27.392 128.291 28.256C127.955 29.104 127.483 29.832 126.875 30.44C126.267 31.048 125.539 31.52 124.691 31.856C123.843 32.192 122.899 32.36 121.859 32.36C120.819 32.36 119.867 32.192 119.003 31.856C118.155 31.52 117.427 31.048 116.819 30.44C116.227 29.832 115.763 29.104 115.427 28.256C115.107 27.392 114.947 26.44 114.947 25.4ZM118.427 25.4C118.427 26.52 118.739 27.424 119.363 28.112C119.987 28.784 120.819 29.12 121.859 29.12C122.899 29.12 123.731 28.784 124.355 28.112C124.995 27.424 125.315 26.52 125.315 25.4C125.315 24.28 124.995 23.384 124.355 22.712C123.731 22.024 122.899 21.68 121.859 21.68C120.819 21.68 119.987 22.024 119.363 22.712C118.739 23.384 118.427 24.28 118.427 25.4ZM130.708 19.4C130.708 19 130.916 18.8 131.332 18.8H133.876C134.052 18.8 134.228 18.848 134.404 18.944C134.58 19.024 134.708 19.152 134.788 19.328L138.172 26.144L141.556 19.328C141.636 19.152 141.764 19.024 141.94 18.944C142.116 18.848 142.292 18.8 142.468 18.8H145.012C145.412 18.8 145.612 19 145.612 19.4V31.4C145.612 31.8 145.412 32 145.012 32H142.876C142.7 32 142.548 31.944 142.42 31.832C142.308 31.72 142.252 31.576 142.252 31.4V24.848L139.876 29.576C139.796 29.752 139.668 29.888 139.492 29.984C139.316 30.064 139.14 30.104 138.964 30.104H137.38C137.204 30.104 137.028 30.064 136.852 29.984C136.676 29.888 136.548 29.752 136.468 29.576L134.068 24.848V31.4C134.068 31.8 133.868 32 133.468 32H131.332C130.916 32 130.708 31.8 130.708 31.4V19.4Z" fill="#140040"/>
<defs>
<linearGradient id="paint0_linear_6_25" x1="0" y1="0" x2="49.6914" y2="50" gradientUnits="userSpaceOnUse">
<stop offset="0.151042" stop-color="#814CF9"/>
<stop offset="1" stop-color="#6804F4"/>
</linearGradient>
</defs>
</svg>
